<svg xmlns="http://www.w3.org/2000/svg" width="22" height="22.001" viewBox="0 0 22 22.001">
  <g id="Icons_apple_w" transform="translate(-240 -645.999)">
    <rect id="長方形_146" data-name="長方形 146" width="22" height="22" transform="translate(240 646)" fill="#fff" opacity="0"/>
    <g id="apple" transform="translate(242 645.999)">
      <path id="パス_457" data-name="パス 457" d="M18,15.791a13.612,13.612,0,0,1-1.361,2.348c-.884,1.244-2.129,2.792-3.673,2.806-1.372.012-1.724-.825-3.585-.816s-2.25.83-3.622.819c-1.543-.013-2.724-1.412-3.607-2.655C-.32,14.815-.578,10.734.946,8.565a5.55,5.55,0,0,1,4.4-2.445c1.636,0,2.665.829,4.017.829,1.312,0,2.112-.83,4-.83a5.48,5.48,0,0,1,4.024,1.964,4.191,4.191,0,0,0-2.363,4.035A4.312,4.312,0,0,0,18,15.791Z" transform="translate(0 0)" fill="#fff"/>
      <path id="パス_458" data-name="パス 458" d="M14.886,4.244A5.727,5.727,0,0,0,16.158,0a6.186,6.186,0,0,0-4,2.15,5.314,5.314,0,0,0-1.306,4.139,5.222,5.222,0,0,0,4.029-2.045Z" transform="translate(-2.824)" fill="#fff"/>
    </g>
  </g>
</svg>
