<svg xmlns="http://www.w3.org/2000/svg" width="22" height="22" viewBox="0 0 22 22">
  <g id="Icons_Twitter_c" transform="translate(-240 -646)">
    <rect id="長方形_146" data-name="長方形 146" width="22" height="22" transform="translate(240 646)" fill="#fff" opacity="0"/>
    <g id="グループ_694" data-name="グループ 694" transform="translate(205 -75)">
      <path id="TW" d="M6.29,16.119A11.546,11.546,0,0,0,17.965,4.539c0-.176,0-.352-.012-.526A8.312,8.312,0,0,0,20,1.906a8.243,8.243,0,0,1-2.357.64,4.09,4.09,0,0,0,1.8-2.251,8.264,8.264,0,0,1-2.606.988,4.131,4.131,0,0,0-5.806-.177A4.053,4.053,0,0,0,9.849,4.995,11.682,11.682,0,0,1,1.392.743a4.053,4.053,0,0,0,1.27,5.433A4.1,4.1,0,0,1,.8,5.666v.052a4.08,4.08,0,0,0,3.292,3.99,4.129,4.129,0,0,1-1.853.07A4.1,4.1,0,0,0,6.073,12.6a8.277,8.277,0,0,1-5.1,1.746A8.42,8.42,0,0,1,0,14.291a11.686,11.686,0,0,0,6.29,1.825" transform="translate(36 724)" fill="#4b9ae9"/>
    </g>
  </g>
</svg>
