<?xml version="1.0" encoding="utf-8"?><svg xmlns="http://www.w3.org/2000/svg" xmlns:xlink="http://www.w3.org/1999/xlink"><symbol viewBox="0 0 22 22" id="Icons_Twitter_c" xmlns="http://www.w3.org/2000/svg"><path d="M7.29 19.119a11.546 11.546 0 0011.675-11.58c0-.176 0-.352-.012-.526A8.312 8.312 0 0021 4.906a8.243 8.243 0 01-2.357.64 4.09 4.09 0 001.8-2.251 8.264 8.264 0 01-2.606.988 4.131 4.131 0 00-5.806-.177 4.053 4.053 0 00-1.182 3.889 11.682 11.682 0 01-8.457-4.252 4.053 4.053 0 001.27 5.433 4.1 4.1 0 01-1.862-.51v.052a4.08 4.08 0 003.292 3.99 4.129 4.129 0 01-1.853.07A4.1 4.1 0 007.073 15.6a8.277 8.277 0 01-5.1 1.746A8.42 8.42 0 011 17.291a11.686 11.686 0 006.29 1.825" fill="#4b9ae9" data-name="グループ 694"/></symbol><symbol viewBox="0 0 22 22.001" id="Icons_apple_w" xmlns="http://www.w3.org/2000/svg"><g fill="#fff"><path data-name="パス 457" d="M20 15.791a13.612 13.612 0 01-1.361 2.348c-.884 1.244-2.129 2.792-3.673 2.806-1.372.012-1.724-.825-3.585-.816s-2.25.83-3.622.819c-1.543-.013-2.724-1.412-3.607-2.655-2.472-3.478-2.73-7.559-1.206-9.728a5.55 5.55 0 014.4-2.445c1.636 0 2.665.829 4.017.829 1.312 0 2.112-.83 4-.83a5.48 5.48 0 014.024 1.964 4.191 4.191 0 00-2.363 4.035A4.312 4.312 0 0020 15.791z"/><path data-name="パス 458" d="M14.062 4.244A5.727 5.727 0 0015.334 0a6.186 6.186 0 00-4 2.15 5.314 5.314 0 00-1.306 4.139 5.222 5.222 0 004.029-2.045z"/></g></symbol></svg>